<svg width="32" height="32" viewBox="0 0 32 32" fill="none" xmlns="http://www.w3.org/2000/svg">
<path d="M24.3905 5.72396C24.9112 5.20326 25.7556 5.20326 26.2763 5.72396C26.7967 6.24462 26.7967 7.08807 26.2763 7.60873L17.8847 15.9993L26.2763 24.391C26.7967 24.9116 26.7967 25.7551 26.2763 26.2757C25.7556 26.7964 24.9112 26.7964 24.3905 26.2757L15.9999 17.8851L7.60927 26.2757C7.08862 26.7962 6.24517 26.7962 5.72451 26.2757C5.20381 25.755 5.20381 24.9107 5.72451 24.39L14.1142 15.9993L5.72451 7.6097C5.20381 7.089 5.20381 6.24466 5.72451 5.72396C6.24517 5.20348 7.08862 5.20348 7.60927 5.72396L15.9999 14.1146L24.3905 5.72396Z" fill="#242424"/>
</svg>
