<svg width="32" height="32" viewBox="0 0 32 32" fill="none" xmlns="http://www.w3.org/2000/svg">
<path fill-rule="evenodd" clip-rule="evenodd" d="M13.6761 6C9.43672 6 6 9.43672 6 13.6761C6 17.9155 9.43672 21.3523 13.6761 21.3523C17.9155 21.3523 21.3523 17.9155 21.3523 13.6761C21.3523 9.43672 17.9155 6 13.6761 6ZM3 13.6761C3 7.77987 7.77987 3 13.6761 3C19.5724 3 24.3523 7.77987 24.3523 13.6761C24.3523 15.516 23.8869 17.2472 23.0674 18.7583C22.5861 19.6458 22.6362 20.7717 23.3501 21.4856L28.25 26.3855C28.8358 26.9713 28.8358 27.921 28.25 28.5068C27.6642 29.0926 26.7145 29.0926 26.1287 28.5068L21.1501 23.5282C20.4546 22.8327 19.3644 22.7659 18.4866 23.2097C17.041 23.9405 15.4067 24.3523 13.6761 24.3523C7.77987 24.3523 3 19.5724 3 13.6761Z" fill="#EDEDED"/>
</svg>
