<svg width="141" height="26" viewBox="0 0 141 26" fill="none" xmlns="http://www.w3.org/2000/svg">
<path d="M0.0227273 25.5V2.22727H9.20455C10.9697 2.22727 12.4735 2.56439 13.7159 3.23864C14.9583 3.9053 15.9053 4.83333 16.5568 6.02273C17.2159 7.20454 17.5455 8.56818 17.5455 10.1136C17.5455 11.6591 17.2121 13.0227 16.5455 14.2045C15.8788 15.3864 14.9129 16.3068 13.6477 16.9659C12.3902 17.625 10.8674 17.9545 9.07955 17.9545H3.22727V14.0114H8.28409C9.23106 14.0114 10.0114 13.8485 10.625 13.5227C11.2462 13.1894 11.7083 12.7311 12.0114 12.1477C12.322 11.5568 12.4773 10.8788 12.4773 10.1136C12.4773 9.34091 12.322 8.66667 12.0114 8.09091C11.7083 7.50757 11.2462 7.05682 10.625 6.73864C10.0038 6.41288 9.21591 6.25 8.26136 6.25H4.94318V25.5H0.0227273ZM19.0506 25.5V8.04545H23.7437V11.0909H23.9256C24.2437 10.0076 24.7778 9.18939 25.5278 8.63636C26.2778 8.07576 27.1415 7.79545 28.1187 7.79545C28.3612 7.79545 28.6225 7.81061 28.9028 7.84091C29.1831 7.87121 29.4294 7.91288 29.6415 7.96591V12.2614C29.4142 12.1932 29.0998 12.1326 28.6983 12.0795C28.2968 12.0265 27.9294 12 27.596 12C26.8839 12 26.2475 12.1553 25.6869 12.4659C25.1339 12.7689 24.6945 13.1932 24.3687 13.7386C24.0506 14.2841 23.8915 14.9129 23.8915 15.625V25.5H19.0506ZM37.6182 25.8409C35.853 25.8409 34.3265 25.4659 33.0386 24.7159C31.7583 23.9583 30.7697 22.9053 30.0727 21.5568C29.3758 20.2008 29.0273 18.6288 29.0273 16.8409C29.0273 15.0379 29.3758 13.4621 30.0727 12.1136C30.7697 10.7576 31.7583 9.70454 33.0386 8.95454C34.3265 8.19697 35.853 7.81818 37.6182 7.81818C39.3833 7.81818 40.9061 8.19697 42.1864 8.95454C43.4742 9.70454 44.4667 10.7576 45.1636 12.1136C45.8606 13.4621 46.2091 15.0379 46.2091 16.8409C46.2091 18.6288 45.8606 20.2008 45.1636 21.5568C44.4667 22.9053 43.4742 23.9583 42.1864 24.7159C40.9061 25.4659 39.3833 25.8409 37.6182 25.8409ZM37.6409 22.0909C38.4439 22.0909 39.1144 21.8636 39.6523 21.4091C40.1902 20.947 40.5955 20.3182 40.8682 19.5227C41.1485 18.7273 41.2886 17.822 41.2886 16.8068C41.2886 15.7917 41.1485 14.8864 40.8682 14.0909C40.5955 13.2955 40.1902 12.6667 39.6523 12.2045C39.1144 11.7424 38.4439 11.5114 37.6409 11.5114C36.8303 11.5114 36.1485 11.7424 35.5955 12.2045C35.05 12.6667 34.6371 13.2955 34.3568 14.0909C34.0841 14.8864 33.9477 15.7917 33.9477 16.8068C33.9477 17.822 34.0841 18.7273 34.3568 19.5227C34.6371 20.3182 35.05 20.947 35.5955 21.4091C36.1485 21.8636 36.8303 22.0909 37.6409 22.0909ZM47.7568 25.5V8.04545H52.3705V11.125H52.575C52.9386 10.1023 53.5447 9.29545 54.3932 8.70454C55.2417 8.11364 56.2568 7.81818 57.4386 7.81818C58.6356 7.81818 59.6545 8.11742 60.4955 8.71591C61.3364 9.30682 61.897 10.1098 62.1773 11.125H62.3591C62.7152 10.125 63.3591 9.32576 64.2909 8.72727C65.2303 8.12121 66.3402 7.81818 67.6205 7.81818C69.2492 7.81818 70.5712 8.33712 71.5864 9.375C72.6091 10.4053 73.1205 11.8674 73.1205 13.7614V25.5H68.2909V14.7159C68.2909 13.7462 68.0333 13.0189 67.5182 12.5341C67.003 12.0492 66.3591 11.8068 65.5864 11.8068C64.7076 11.8068 64.022 12.0871 63.5295 12.6477C63.0371 13.2008 62.7909 13.9318 62.7909 14.8409V25.5H58.0977V14.6136C58.0977 13.7576 57.8515 13.0758 57.3591 12.5682C56.8742 12.0606 56.2341 11.8068 55.4386 11.8068C54.9008 11.8068 54.4159 11.9432 53.9841 12.2159C53.5598 12.4811 53.2227 12.8561 52.9727 13.3409C52.7227 13.8182 52.5977 14.3788 52.5977 15.0227V25.5H47.7568ZM83.2307 25.8409C81.4428 25.8409 79.9049 25.4621 78.617 24.7045C77.3367 23.9394 76.3519 22.8788 75.6625 21.5227C74.9807 20.1667 74.6398 18.6061 74.6398 16.8409C74.6398 15.053 74.9845 13.4848 75.6739 12.1364C76.3708 10.7803 77.3595 9.72348 78.6398 8.96591C79.9201 8.20076 81.4428 7.81818 83.208 7.81818C84.7307 7.81818 86.064 8.0947 87.208 8.64773C88.3519 9.20076 89.2572 9.97727 89.9239 10.9773C90.5905 11.9773 90.958 13.1515 91.0261 14.5H86.458C86.3292 13.6288 85.9883 12.928 85.4352 12.3977C84.8898 11.8598 84.1739 11.5909 83.2875 11.5909C82.5375 11.5909 81.8822 11.7955 81.3216 12.2045C80.7686 12.6061 80.3367 13.1932 80.0261 13.9659C79.7155 14.7386 79.5602 15.6742 79.5602 16.7727C79.5602 17.8864 79.7117 18.8333 80.0148 19.6136C80.3254 20.3939 80.761 20.9886 81.3216 21.3977C81.8822 21.8068 82.5375 22.0114 83.2875 22.0114C83.8405 22.0114 84.3367 21.8977 84.7761 21.6705C85.2231 21.4432 85.5905 21.1136 85.8784 20.6818C86.1739 20.2424 86.367 19.7159 86.458 19.1023H91.0261C90.9504 20.4356 90.5867 21.6098 89.9352 22.625C89.2913 23.6326 88.4011 24.4205 87.2648 24.9886C86.1284 25.5568 84.7837 25.8409 83.2307 25.8409ZM97.3665 2.22727V25.5H92.5256V2.22727H97.3665ZM99.6443 25.5V8.04545H104.485V25.5H99.6443ZM102.076 5.79545C101.356 5.79545 100.739 5.55682 100.224 5.07954C99.7163 4.5947 99.4625 4.01515 99.4625 3.34091C99.4625 2.67424 99.7163 2.10227 100.224 1.625C100.739 1.14015 101.356 0.897726 102.076 0.897726C102.796 0.897726 103.409 1.14015 103.917 1.625C104.432 2.10227 104.69 2.67424 104.69 3.34091C104.69 4.01515 104.432 4.5947 103.917 5.07954C103.409 5.55682 102.796 5.79545 102.076 5.79545ZM114.649 25.8409C112.862 25.8409 111.324 25.4621 110.036 24.7045C108.755 23.9394 107.771 22.8788 107.081 21.5227C106.399 20.1667 106.059 18.6061 106.059 16.8409C106.059 15.053 106.403 13.4848 107.093 12.1364C107.79 10.7803 108.778 9.72348 110.059 8.96591C111.339 8.20076 112.862 7.81818 114.627 7.81818C116.149 7.81818 117.483 8.0947 118.627 8.64773C119.771 9.20076 120.676 9.97727 121.343 10.9773C122.009 11.9773 122.377 13.1515 122.445 14.5H117.877C117.748 13.6288 117.407 12.928 116.854 12.3977C116.309 11.8598 115.593 11.5909 114.706 11.5909C113.956 11.5909 113.301 11.7955 112.74 12.2045C112.187 12.6061 111.755 13.1932 111.445 13.9659C111.134 14.7386 110.979 15.6742 110.979 16.7727C110.979 17.8864 111.13 18.8333 111.434 19.6136C111.744 20.3939 112.18 20.9886 112.74 21.3977C113.301 21.8068 113.956 22.0114 114.706 22.0114C115.259 22.0114 115.755 21.8977 116.195 21.6705C116.642 21.4432 117.009 21.1136 117.297 20.6818C117.593 20.2424 117.786 19.7159 117.877 19.1023H122.445C122.369 20.4356 122.005 21.6098 121.354 22.625C120.71 23.6326 119.82 24.4205 118.684 24.9886C117.547 25.5568 116.202 25.8409 114.649 25.8409ZM128.331 20.4773L128.342 14.6705H129.047L134.637 8.04545H140.194L132.683 16.8182H131.535L128.331 20.4773ZM123.944 25.5V2.22727H128.785V25.5H123.944ZM134.853 25.5L129.717 17.8977L132.944 14.4773L140.524 25.5H134.853Z" fill="black"/>
</svg>
